inDegrees=yes
name=ik_wink_l
DataType=double
version=3
OpenSimVersion=4.5
endheader
time	pelvis_tilt	pelvis_list	pelvis_rotation	pelvis_tx	pelvis_ty	pelvis_tz	hip_flexion_r	hip_adduction_r	hip_rotation_r	knee_angle_r	knee_angle_r_beta	ankle_angle_r	subtalar_angle_r	mtp_angle_r	hip_flexion_l	hip_adduction_l	hip_rotation_l	knee_angle_l	knee_angle_l_beta	ankle_angle_l	subtalar_angle_l	mtp_angle_l	lumbar_extension	lumbar_bending	lumbar_rotation	arm_flex_r	arm_add_r	arm_rot_r	elbow_flex_r	pro_sup_r	wrist_flex_r	wrist_dev_r	arm_flex_l	arm_add_l	arm_rot_l	elbow_flex_l	pro_sup_l	wrist_flex_l	wrist_dev_l
75	-18.25727219120252	40.3614115004751	2.654990278476623	0	0.9399999999999999	0	45.02412884646196	-10.01259627237098	0	59.86588338949403	1.044856774761654	-5.003342432481156	0	0	45.02412884646196	-10.01259627237098	0	59.86588338949403	1.044856774761654	-5.003342432481156	0	0	-13.56828184394458	42.47469155402086	-5.720082060045666	0	-14.83055417092962	0	74.88524474105702	44.96577829225684	0	-2.694034605743505e-36	-4.576311933993868	-64.73505075491862	3.076638113056533	0.001216435249683727	44.96577829225684	0	-2.694034605743505e-36
76	-18.29573084288733	40.13905827908014	2.789103297949012	0	0.9399999999999999	0	45.02412827212727	-10.01259529245725	0	59.86588603293202	1.04485682089835	-5.003342097590638	0	0	45.02412827212727	-10.01259529245725	0	59.86588603293202	1.04485682089835	-5.003342097590638	0	0	-13.74237855834158	42.24416672604542	-5.784788342822353	0	-14.83055631500828	0	74.88524747674879	44.96578042309402	0	-9.78423250181828e-37	-4.730950421541581	-64.47771311227147	3.254191292402229	0.001199457694839193	44.96578042309402	0	-9.78423250181828e-37
77	-17.65326165246676	40.0631679047628	3.883163400074199	0	0.9399999999999999	0	45.02396194373332	-10.01233120390296	0	59.86671604108276	1.044871307273399	-5.003252541451009	0	0	45.02396194373332	-10.01233120390296	0	59.86671604108276	1.044871307273399	-5.003252541451009	0	0	-13.85946051449046	41.92564973304719	-5.057252726014061	0	-14.83120972621266	0	74.88603973820099	44.96636008582181	0	-2.694034605743505e-36	-5.585634202803877	-64.02722130074393	3.741344411742115	0.001187516899640453	44.96636008582181	0	-2.694034605743505e-36
78	-16.04382305649832	40.13207716490844	5.250519209592418	0	0.9399999999999999	0	45.02367690444107	-10.01201220399498	0	59.8682421876297	1.044897943555511	-5.003156995241914	0	0	45.02367690444107	-10.01201220399498	0	59.8682421876297	1.044897943555511	-5.003156995241914	0	0	-12.93145370844227	41.61440402912134	-3.357568217487503	0	-14.83242741379265	0	74.88739744750458	44.96712846869779	0	0	-5.900715341323377	-63.58933599051031	3.296510610481952	0.00118805854353917	44.96712846869779	0	0
79	-13.79092837364398	40.35296702174205	6.905518983834693	0	0.9399999999999999	0	45.02319209368019	-10.01141370860644	0	59.87072028112716	1.044941194446214	-5.002971802458412	0	0	45.02319209368019	-10.01141370860644	0	59.87072028112716	1.044941194446214	-5.002971802458412	0	0	-11.40479392830983	41.34810858919213	-0.9917014576662723	0	-14.83443442709371	0	74.88970671542913	44.96853521005804	0	5.387469281390537e-53	-6.024111792481496	-63.1958355432165	2.372802078084015	0.001182765260002781	44.96853521005804	0	5.387469281390537e-53
80	-11.24028454925964	40.29584203089193	8.577203754360019	0	0.9399999999999999	0	45.02267887133502	-10.0107680062083	0	59.87332756676668	1.044986700165164	-5.002770635454501	0	0	45.02267887133502	-10.0107680062083	0	59.87332756676668	1.044986700165164	-5.002770635454501	0	0	-9.522295247096404	40.79815823800968	1.55289923408249	0	-14.8365521554334	0	74.89215131451371	44.97004491682017	0	-2.694034605743505e-36	-5.794876754991845	-62.49630741481495	1.076926897773251	0.001198494632390717	44.97004491682017	0	-2.694034605743505e-36
81	-8.679034725556845	40.23008760022157	10.43583792943903	0	0.9399999999999999	0	45.02221130650724	-10.0101884727501	0	59.87569619372477	1.045028040504334	-5.00259094017134	0	0	45.02221130650724	-10.0101884727501	0	59.87569619372477	1.045028040504334	-5.00259094017134	0	0	-7.772094211906541	40.2509007463499	4.130754507128274	0	-14.83848957581005	0	74.8943784360916	44.97140487362353	0	-6.892672028824835e-50	-5.738191367091465	-61.78685994073427	-0.1034348125423583	0.001187519833532081	44.97140487362353	0	-6.892672028824835e-50
82	-6.147865325924386	40.15911388060054	12.34715592484467	0	0.9399999999999999	0	45.02177701221412	-10.00966078207755	0	59.87789140685724	1.045066354201278	-5.002428469488878	0	0	45.02177701221412	-10.00966078207755	0	59.87789140685724	1.045066354201278	-5.002428469488878	0	0	-6.103470625298693	39.72025423036943	6.684230778384069	0	-14.84029780959924	0	74.89644708227704	44.97264965209526	0	-3.694256688876335e-36	-5.741345363197054	-61.09301036972553	-1.251528964409459	0.00121101801923896	44.97264965209526	0	-3.694256688876335e-36
83	-3.692799534162329	39.7518490866712	14.10063759694547	0	0.9399999999999999	0	45.02134700989107	-10.00914405038419	0	59.88006192261935	1.045104236847794	-5.002269979009482	0	0	45.02134700989107	-10.00914405038419	0	59.88006192261935	1.045104236847794	-5.002269979009482	0	0	-4.47359658723876	38.87913184923784	9.054760204171698	0	-14.84209427905351	0	74.89849528481975	44.97387194556048	0	1.201711139924981e-51	-5.664085388633606	-60.07040342524527	-2.392047660628537	0.001216260356738257	44.97387194556048	0	1.201711139924981e-51
84	-1.585529108936555	39.241507370241	15.57851848485709	0	0.9399999999999999	0	45.02097768143458	-10.00870549363437	0	59.88191418687026	1.045136564957589	-5.002136247780078	0	0	45.02097768143458	-10.00870549363437	0	59.88191418687026	1.045136564957589	-5.002136247780078	0	0	-3.106756698990109	38.00123024099444	11.03711609889034	0	-14.84363883796363	0	74.90025448341724	44.97491332973171	0	-2.912069877180022e-37	-5.618224593544562	-59.02389346504258	-3.351109695586538	0.001231120244474557	44.97491332973171	0	-2.912069877180022e-37
85	0.448054853951586	38.97033315626949	17.5435829826818	0	0.9399999999999999	0	45.0207068429624	-10.00842460188152	0	59.88333925528507	1.045161437093494	-5.002053993874741	0	0	45.0207068429624	-10.00842460188152	0	59.88333925528507	1.045161437093494	-5.002053993874741	0	0	-2.179410476390308	37.44681302024544	13.15373090407259	0	-14.84482343662645	0	74.90154455106695	44.9756020075891	0	2.694034605743505e-36	-6.158399017327587	-58.3902070518926	-3.946371153237525	0.001246158631830452	44.9756020075891	0	2.694034605743505e-36
86	2.294113196474747	38.89827043396524	18.92580663119195	0	0.9399999999999999	0	45.02042155339511	-10.00809231420216	0	59.88474272666686	1.045185932290063	-5.001953758402014	0	0	45.02042155339511	-10.00809231420216	0	59.88474272666686	1.045185932290063	-5.001953758402014	0	0	-0.9693588875091754	37.04764560513164	14.98767233509814	0	-14.846013998703	0	74.90290345257745	44.97639669467461	0	3.652809320693425e-51	-6.085497431815656	-57.82628839213503	-4.949806403806048	0.001271941718816956	44.97639669467461	0	3.652809320693425e-51
87	3.983714056505171	39.08069933807231	20.34398614623144	0	0.9399999999999999	0	45.02017694120247	-10.00782113778568	0	59.88596676371641	1.045207295766744	-5.001873172507934	0	0	45.02017694120247	-10.00782113778568	0	59.88596676371641	1.045207295766744	-5.001873172507934	0	0	0.09432130753253032	36.96244538594848	16.76374195083532	0	-14.84705237335015	0	74.90406859819612	44.97705282184494	0	5.981958496866791e-52	-6.064073765261295	-57.61635249186667	-5.922907351207376	0.001265317786058075	44.97705282184494	0	5.981958496866791e-52
